<?xml version="1.0" encoding="UTF-8"?>
<svg width="175px" height="64px" viewBox="0 0 175 64" version="1.1" xmlns="http://www.w3.org/2000/svg" xmlns:xlink="http://www.w3.org/1999/xlink">
    <!-- Generator: Sketch 53.2 (72643) - https://sketchapp.com -->
    <title>mathletics-logo</title>
    <desc>Created with Sketch.</desc>
    <g id="Symbols" stroke="none" stroke-width="1" fill="none" fill-rule="evenodd">
        <g id="Mathletics-Logo" fill-rule="nonzero">
            <g id="mathletics-logo" transform="translate(87.500000, 31.643836) rotate(-360.000000) translate(-87.500000, -31.643836) translate(0.000000, -0.000000)">
                <path d="M161.016781,2.24143836 L160.961644,2.24623288 C159.460959,2.31575342 10.8020548,9.32054795 8.82431507,9.40684932 L8.73321918,9.41164384 C7.79349315,9.45 5.83972603,9.52671233 4.0609589,11.9767123 C1.35924658,15.6972603 2.53630137,20.3071918 2.54828767,20.355137 L2.57226027,20.4702055 L6.25924658,44.5770548 C6.2760274,44.6681507 6.29280822,44.7760274 6.3119863,44.9006849 C6.47979452,45.9770548 6.83219178,48.2208904 9.10719178,50.9178082 C11.4349315,53.6770548 14.1702055,54.0630137 14.4363014,54.0941781 C16.9030822,54.2308219 139.196918,61.0342466 140.841438,61.0726027 L141.030822,61.075 C142.402055,61.0989726 146.050685,61.1589041 151.365411,58.0328767 C156.838356,54.8109589 158.945548,49.709589 158.964726,49.6568493 C159.492123,48.3119863 171.967466,16.4619863 172.219178,15.8674658 C172.238356,15.8195205 174.050685,11.1832192 170.718493,6.19931507 C167.673973,1.65171233 161.083904,2.23424658 161.016781,2.24143836 Z" id="Path" fill="#00ABE8"></path>
                <path d="M172.509247,5.00308219 C168.82226,-0.510616438 161.455479,0.0359589041 160.832192,0.0910958904 C158.142466,0.218150685 10.6941781,7.1630137 8.72842466,7.24931507 L8.64212329,7.25171233 C7.56575342,7.29486301 4.70342466,7.40753425 2.3109589,10.7061644 C-0.853424658,15.0643836 0.278082192,20.180137 0.443493151,20.8441781 L4.12328767,44.9150685 L4.13047945,44.9510274 C4.14486301,45.0277397 4.15924658,45.1212329 4.1760274,45.2315068 C4.36061644,46.4037671 4.78972603,49.1462329 7.45308219,52.3058219 C10.444863,55.8537671 14.0910959,56.2277397 14.2445205,56.2421233 L14.2828767,56.2445205 C19.4010274,56.5297945 139.618836,63.2157534 140.807877,63.2277397 L140.987671,63.230137 C141.121918,63.2325342 141.280137,63.2349315 141.464726,63.2349315 C143.205137,63.2349315 147.172603,62.9952055 152.45137,59.8907534 C158.55,56.2996575 160.863356,50.6996575 160.961644,50.4527397 C165.442123,39.015411 173.973973,17.2410959 174.196918,16.7065068 C174.228082,16.6537671 176.536644,11.025 172.509247,5.00308219 Z M172.216781,15.869863 C171.967466,16.4619863 159.489726,48.3119863 158.962329,49.6592466 C158.940753,49.709589 156.835959,54.8133562 151.363014,58.035274 C146.04589,61.1613014 142.399658,61.1013699 141.028425,61.0773973 L140.839041,61.075 C139.194521,61.0366438 16.9030822,54.2332192 14.4339041,54.0965753 C14.1678082,54.065411 11.4325342,53.6794521 9.10479452,50.9202055 C6.82979452,48.2232877 6.47739726,45.9794521 6.30958904,44.9030822 C6.29041096,44.7784247 6.27363014,44.6705479 6.25684932,44.5794521 L2.56986301,20.4726027 L2.54589041,20.3575342 C2.53390411,20.3119863 1.35684932,15.7020548 4.05856164,11.9791096 C5.83732877,9.52910959 7.79109589,9.45 8.73082192,9.4140411 L8.82191781,9.40924658 C10.7996575,9.32294521 159.458562,2.32054795 160.959247,2.24863014 L161.014384,2.24383562 C161.081507,2.23664384 167.671575,1.65410959 170.713699,6.20410959 C174.050685,11.1856164 172.238356,15.8243151 172.216781,15.869863 Z" id="Shape" fill="#FFFFFF"></path>
                <g id="Group" transform="translate(13.664384, 17.500000)" fill="#FFFFFF">
                    <path d="M22.3952055,0.0623287671 C21.6640411,0.0623287671 21.3547945,0.481849315 21.1462329,0.898972603 L11.9455479,20.5565068 L2.74006849,0.891780822 C2.53630137,0.481849315 2.22705479,0.0623287671 1.49349315,0.0623287671 C0.733561644,0.0623287671 0.179794521,0.61369863 0.179794521,1.37363014 L0.179794521,23.1839041 C0.179794521,23.9438356 0.731164384,24.4952055 1.49349315,24.4952055 C2.21027397,24.4952055 2.77123288,23.919863 2.77123288,23.1839041 L2.77123288,6.70513699 L10.6941781,23.689726 C10.9410959,24.2315068 11.3486301,24.4952055 11.9455479,24.4952055 C12.5400685,24.4952055 12.95,24.2315068 13.1945205,23.6945205 L21.1174658,6.70513699 L21.1174658,23.1839041 C21.1174658,23.919863 21.6784247,24.4952055 22.3952055,24.4952055 C23.155137,24.4952055 23.7065068,23.9438356 23.7065068,23.1839041 L23.7065068,1.37363014 C23.7089041,0.61369863 23.155137,0.0623287671 22.3952055,0.0623287671 Z" id="Path"></path>
                    <path d="M35.1510274,8.03082192 C30.339726,8.03082192 26.8493151,11.5212329 26.8493151,16.3325342 C26.8493151,20.3311644 29.4263699,24.6342466 35.0815068,24.6342466 C37.3541096,24.6342466 39.3150685,23.7784247 40.6886986,22.2058219 L40.6886986,23.1479452 C40.6886986,23.9030822 41.2808219,24.4952055 42.0359589,24.4952055 C42.7910959,24.4952055 43.3832192,23.9030822 43.3832192,23.1479452 L43.3832192,16.3684932 C43.3832192,11.5356164 39.9215753,8.03082192 35.1510274,8.03082192 Z M35.1510274,22.2202055 C31.8284247,22.2202055 29.5078767,19.7989726 29.5078767,16.3325342 C29.5078767,12.8660959 31.8284247,10.444863 35.1510274,10.444863 C38.3609589,10.444863 40.6886986,12.9212329 40.6886986,16.3325342 C40.6886986,19.6335616 38.2554795,22.2202055 35.1510274,22.2202055 Z" id="Shape"></path>
                    <path d="M53.9886986,8.44794521 L50.7571918,8.44794521 L50.7571918,3.85479452 C50.7571918,3.09965753 50.1650685,2.50753425 49.4099315,2.50753425 C48.6547945,2.50753425 48.0626712,3.09965753 48.0626712,3.85479452 L48.0626712,8.44794521 L45.2506849,8.44794521 C44.5938356,8.44794521 44.0784247,8.96335616 44.0784247,9.62020548 C44.0784247,10.2770548 44.5938356,10.7924658 45.2506849,10.7924658 L48.0626712,10.7924658 L48.0626712,23.1455479 C48.0626712,23.9006849 48.6547945,24.4928082 49.4099315,24.4928082 C50.1650685,24.4928082 50.7571918,23.9006849 50.7571918,23.1455479 L50.7571918,10.7924658 L53.9886986,10.7924658 C54.6239726,10.7924658 55.1609589,10.2554795 55.1609589,9.62020548 C55.1609589,8.98732877 54.6239726,8.44794521 53.9886986,8.44794521 Z" id="Path"></path>
                    <path d="M64.2297945,8.03082192 C61.9476027,8.03082192 60.0681507,8.85547945 58.8311644,10.3777397 L58.8311644,1.40958904 C58.8311644,0.654452055 58.2390411,0.0623287671 57.4839041,0.0623287671 C56.7287671,0.0623287671 56.1366438,0.654452055 56.1366438,1.40958904 L56.1366438,23.1479452 C56.1366438,23.9030822 56.7287671,24.4952055 57.4839041,24.4952055 C58.2390411,24.4952055 58.8311644,23.9030822 58.8311644,23.1479452 L58.8311644,15.8434932 C58.8311644,12.7270548 60.8640411,10.5503425 63.7743151,10.5503425 C66.7373288,10.5503425 68.3674658,12.2691781 68.3674658,15.390411 L68.3674658,23.1479452 C68.3674658,23.9030822 68.959589,24.4952055 69.714726,24.4952055 C70.469863,24.4952055 71.0619863,23.9030822 71.0619863,23.1479452 L71.0619863,15.3544521 C71.0619863,10.9722603 68.3171233,8.03082192 64.2297945,8.03082192 Z" id="Path"></path>
                    <path d="M75.830137,0.0623287671 C75.075,0.0623287671 74.4828767,0.654452055 74.4828767,1.40958904 L74.4828767,23.1479452 C74.4828767,23.9030822 75.075,24.4952055 75.830137,24.4952055 C76.585274,24.4952055 77.1773973,23.9030822 77.1773973,23.1479452 L77.1773973,1.40958904 C77.1773973,0.652054795 76.5876712,0.0623287671 75.830137,0.0623287671 Z" id="Path"></path>
                    <path d="M87.8883562,8.03082192 C83.3503425,8.03082192 79.7952055,11.6770548 79.7952055,16.3325342 C79.7952055,20.4582192 82.6455479,24.6342466 88.0969178,24.6342466 C90.7195205,24.6342466 93.1958904,23.4619863 94.5671233,21.5657534 C94.7517123,21.2900685 94.8260274,21.0599315 94.8260274,20.769863 C94.8260274,20.1010274 94.3226027,19.5976027 93.6537671,19.5976027 C93.1527397,19.5976027 92.8386986,19.8972603 92.6205479,20.1585616 C91.4243151,21.5873288 89.9859589,22.2537671 88.0969178,22.2537671 C84.7071918,22.2537671 82.7797945,19.8253425 82.544863,17.3297945 L94.3537671,17.3297945 C94.9890411,17.3297945 95.5260274,16.7928082 95.5260274,16.1575342 C95.5260274,11.4493151 92.3136986,8.03082192 87.8883562,8.03082192 Z M87.8883562,10.3753425 C90.5229452,10.3753425 92.5702055,12.2547945 92.9681507,14.985274 L82.6335616,14.985274 C83.0458904,12.2931507 85.2082192,10.3753425 87.8883562,10.3753425 Z" id="Shape"></path>
                    <path d="M105.572945,8.44794521 L102.341438,8.44794521 L102.341438,3.85479452 C102.341438,3.09965753 101.749315,2.50753425 100.994178,2.50753425 C100.239041,2.50753425 99.6469178,3.09965753 99.6469178,3.85479452 L99.6469178,8.44794521 L96.8349315,8.44794521 C96.1780822,8.44794521 95.6626712,8.96335616 95.6626712,9.62020548 C95.6626712,10.2770548 96.1780822,10.7924658 96.8349315,10.7924658 L99.6469178,10.7924658 L99.6469178,23.1455479 C99.6469178,23.9006849 100.239041,24.4928082 100.994178,24.4928082 C101.749315,24.4928082 102.341438,23.9006849 102.341438,23.1455479 L102.341438,10.7924658 L105.572945,10.7924658 C106.208219,10.7924658 106.745205,10.2554795 106.745205,9.62020548 C106.745205,8.98732877 106.208219,8.44794521 105.572945,8.44794521 Z" id="Path"></path>
                    <path d="M109.065753,2.50753425 C108.169178,2.50753425 107.438014,3.23630137 107.438014,4.13527397 C107.438014,5.03184932 108.169178,5.7630137 109.065753,5.7630137 C109.962329,5.7630137 110.693493,5.03184932 110.693493,4.13527397 C110.693493,3.23630137 109.964726,2.50753425 109.065753,2.50753425 Z" id="Path"></path>
                    <path d="M109.065753,8.16986301 C108.310616,8.16986301 107.718493,8.7619863 107.718493,9.51712329 L107.718493,23.1479452 C107.718493,23.9030822 108.310616,24.4952055 109.065753,24.4952055 C109.82089,24.4952055 110.413014,23.9030822 110.413014,23.1479452 L110.413014,9.51712329 C110.413014,8.7619863 109.823288,8.16986301 109.065753,8.16986301 Z" id="Path"></path>
                    <path d="M121.368493,10.444863 C123.262329,10.444863 124.492123,11.0321918 125.753082,12.5400685 C125.894521,12.710274 126.191781,13.0674658 126.716781,13.0674658 C127.464726,13.0674658 128.030479,12.5640411 128.030479,11.8952055 C128.030479,11.6075342 127.956164,11.3773973 127.771575,11.0993151 C126.781507,9.61541096 124.583219,8.03082192 121.37089,8.03082192 C116.638699,8.03082192 113.069178,11.6003425 113.069178,16.3325342 C113.069178,21.064726 116.638699,24.6342466 121.37089,24.6342466 C124.580822,24.6342466 126.781507,23.0496575 127.771575,21.5633562 C127.956164,21.2876712 128.030479,21.0575342 128.030479,20.769863 C128.030479,20.1010274 127.467123,19.5976027 126.716781,19.5976027 C126.191781,19.5976027 125.896918,19.9523973 125.753082,20.125 C124.492123,21.6328767 123.262329,22.2202055 121.368493,22.2202055 C118.170548,22.2202055 115.761301,19.6886986 115.761301,16.3325342 C115.761301,12.9763699 118.172945,10.444863 121.368493,10.444863 Z" id="Path"></path>
                    <path d="M136.653425,15.1363014 C133.210959,14.1486301 132.604452,13.4390411 132.604452,12.3123288 C132.604452,10.5958904 134.891438,10.3393836 136.255479,10.3393836 C137.485274,10.3393836 138.887671,10.7085616 140.117466,11.3630137 C140.44589,11.5452055 140.728767,11.7034247 141.078767,11.7034247 C141.769178,11.7034247 142.251027,11.2503425 142.251027,10.6006849 C142.251027,9.92705479 141.658904,9.54349315 141.153082,9.28938356 C139.669178,8.47671233 137.943151,8.03082192 136.291438,8.03082192 C132.280822,8.03082192 129.981849,9.61780822 129.981849,12.3842466 C129.981849,14.8678082 131.758219,16.330137 136.315411,17.5982877 C138.671918,18.2623288 140.117466,18.7417808 140.117466,20.2113014 C140.117466,21.580137 138.731849,22.4287671 136.5,22.4287671 C134.84589,22.4287671 133.167808,21.8534247 131.902055,20.8561644 C131.705479,20.6931507 131.386644,20.4726027 130.907192,20.4726027 C130.27911,20.4726027 129.804452,20.9304795 129.804452,21.5393836 C129.804452,21.939726 130.005822,22.3280822 130.331849,22.5726027 C131.918836,23.9030822 134.073973,24.6342466 136.394521,24.6342466 C140.249315,24.6342466 142.740068,22.8554795 142.740068,20.1058219 C142.742466,17.1476027 140.218151,16.1815068 136.653425,15.1363014 Z" id="Path"></path>
                </g>
            </g>
        </g>
    </g>
</svg>